<svg version="1.1" xmlns="http://www.w3.org/2000/svg" xmlns:xlink="http://www.w3.org/1999/xlink" style="enable-background:new 0 0 512.001 512.001;" xml:space="preserve" width="512.0009765625" height="512.0009765625"><rect id="backgroundrect" width="100%" height="100%" x="0" y="0" fill="none" stroke="none"/>


































<g class="currentLayer" style=""><title>Layer 1</title><polyline style="fill:#C97523;" points="131.202,348.955 131.202,455.833 86.363,455.833 86.363,348.938 " id="svg_1"/><polyline style="fill:#A85613;" points="106.363,348.955 106.363,455.833 86.363,455.833 86.363,348.938 " id="svg_2"/><ellipse style="fill:#8CC928;" cx="108.78199768066406" cy="201.39300537109375" rx="108.78199768066406" ry="171.01499938964844" id="svg_3"/><path style="fill:#82B20B;" d="M108.782,372.411C48.698,372.411,0,295.84,0,201.396S48.698,30.381,108.782,30.381  c-26.601,0-48.155,76.571-48.155,171.015S82.181,372.411,108.782,372.411z" id="svg_4"/><polygon style="fill:#E9EAEF;" points="468.698,263.882 468.698,481.621 183.04,481.621 183.04,263.882 326.674,124.549 " id="svg_5"/><polyline style="fill:#9EB1B7;" points="398.802,187.006 398.802,146.786 470.217,146.786 470.217,255.017 " id="svg_6"/><polyline style="fill:#879BA0;" points="398.802,187.006 398.802,146.786 415.953,146.786 415.953,255.017 " id="svg_7"/><g id="svg_8">
	<path style="fill:#85C10D;" d="M354.204,435.996h143.137c8.096,0,14.66,6.563,14.66,14.66v30.967H339.544v-30.967   C339.544,442.559,346.107,435.996,354.204,435.996z" id="svg_9"/>
	<path style="fill:#85C10D;" d="M14.66,435.996h166.026c8.096,0,14.66,6.563,14.66,14.66v30.967H0v-30.967   C0,442.559,6.563,435.996,14.66,435.996z" id="svg_10"/>
</g><polygon style="fill:#D2D4D8;" points="468.698,272.43 468.698,313.129 325.869,176.757 183.04,313.129 183.04,272.43   314.525,147.203 325.869,136.666 337.204,147.203 " id="svg_11"/><polygon style="fill:#EA4756;" points="325.865,154.108 163.246,309.368 140.507,290.279 314.527,124.549 325.865,114.017   337.205,124.549 511.225,290.279 488.486,309.368 " id="svg_12"/><rect x="217.98199462890625" y="318.4859924316406" style="fill:#C97523;" width="94.2040023803711" height="163.1320037841797" id="svg_13"/><path style="fill:#8E480E;" d="M318.971,481.621h-13.556V325.262h-80.65v156.359h-13.556V318.484c0-3.744,3.034-6.778,6.778-6.778  h94.207c3.744,0,6.778,3.034,6.778,6.778V481.621z" id="svg_14"/><rect x="339.54901123046875" y="318.4859924316406" style="fill:#A0D9F2;" width="107.28099822998047" height="94.2040023803711" id="svg_15"/><rect x="339.54901123046875" y="318.4859924316406" style="fill:#C97523;" width="107.28099822998047" height="28.625999450683594" id="svg_16"/><g id="svg_17">
	<path style="fill:#8E480E;" d="M446.822,419.47H339.544c-3.744,0-6.778-3.034-6.778-6.778v-94.206c0-3.744,3.034-6.778,6.778-6.778   h107.279c3.744,0,6.778,3.034,6.778,6.778v94.206C453.6,416.434,450.566,419.47,446.822,419.47z M346.322,405.914h93.723v-80.65   h-93.723V405.914z" id="svg_18"/>
	<path style="fill:#8E480E;" d="M291.023,406.308h-13.674c-3.744,0-6.778-3.034-6.778-6.778s3.034-6.778,6.778-6.778h13.674   c3.744,0,6.778,3.034,6.778,6.778S294.766,406.308,291.023,406.308z" id="svg_19"/>
</g><circle style="fill:#413740;" cx="325.8680114746094" cy="245.69000244140625" r="26.204999923706055" id="svg_20"/><rect x="339.54901123046875" y="340.3320007324219" style="fill:#8E480E;" width="107.28099822998047" height="13.555999755859375" id="svg_21"/><path style="fill:#EA4756;" d="M325.869,278.679c-18.189,0-32.987-14.798-32.987-32.987s14.797-32.987,32.987-32.987  s32.988,14.798,32.988,32.987C358.856,263.881,344.058,278.679,325.869,278.679z M325.869,226.261  c-10.713,0-19.431,8.717-19.431,19.431s8.717,19.431,19.431,19.431s19.432-8.717,19.432-19.431S336.583,226.261,325.869,226.261z" id="svg_22"/><g id="svg_23">
	<path style="fill:#85C10D;" d="M46.925,449.03c-4.32,0-7.821-3.502-7.821-7.821v-19.787c0-4.319,3.501-7.821,7.821-7.821   s7.821,3.502,7.821,7.821v19.787C54.746,445.529,51.244,449.03,46.925,449.03z" id="svg_24"/>
	<path style="fill:#85C10D;" d="M21.803,449.03c-4.32,0-7.821-3.502-7.821-7.821v-19.787c0-4.319,3.501-7.821,7.821-7.821   s7.821,3.502,7.821,7.821v19.787C29.624,445.529,26.123,449.03,21.803,449.03z" id="svg_25"/>
	<path style="fill:#85C10D;" d="M157.12,449.03c-4.32,0-7.821-3.502-7.821-7.821v-19.787c0-4.319,3.501-7.821,7.821-7.821   c4.32,0,7.821,3.502,7.821,7.821v19.787C164.941,445.529,161.441,449.03,157.12,449.03z" id="svg_26"/>
</g><g id="svg_27">
</g><g id="svg_28">
</g><g id="svg_29">
</g><g id="svg_30">
</g><g id="svg_31">
</g><g id="svg_32">
</g><g id="svg_33">
</g><g id="svg_34">
</g><g id="svg_35">
</g><g id="svg_36">
</g><g id="svg_37">
</g><g id="svg_38">
</g><g id="svg_39">
</g><g id="svg_40">
</g><g id="svg_41">
</g><path fill="none" fill-opacity="1" stroke="#000000" stroke-opacity="1" stroke-width="7" stroke-dasharray="none" stroke-linejoin="miter" stroke-linecap="butt" stroke-dashoffset="" fill-rule="nonzero" opacity="1" marker-start="" marker-mid="" marker-end="" d="M138.5090982913971,288.10180735588074L327.6000006198883,109.91999554634094" id="svg_42"/><path fill="none" fill-opacity="1" stroke="#000000" stroke-opacity="1" stroke-width="7" stroke-dasharray="none" stroke-linejoin="miter" stroke-linecap="butt" stroke-dashoffset="" fill-rule="nonzero" opacity="1" marker-start="" marker-mid="" marker-end="" d="M136.69091653823853,284.4654438495636L163.96364283561707,312.6472610235214" id="svg_44"/><path fill="none" fill-opacity="1" stroke="#000000" stroke-opacity="1" stroke-width="7" stroke-dasharray="none" stroke-linejoin="miter" stroke-linecap="butt" stroke-dashoffset="" fill-rule="nonzero" opacity="1" marker-start="" marker-mid="" marker-end="" d="M162.1454610824585,309.91998839378357L328.5090914964676,153.5563576221466" id="svg_46"/><path fill="none" fill-opacity="1" stroke="#000000" stroke-opacity="1" stroke-width="7" stroke-dasharray="none" stroke-linejoin="miter" stroke-linecap="butt" stroke-dashoffset="" fill-rule="nonzero" opacity="1" marker-start="" marker-mid="" marker-end="" d="M324.87272799015045,152.64726674556732L487.5999948978424,311.73817014694214" id="svg_43"/><path fill="none" fill-opacity="1" stroke="#000000" stroke-opacity="1" stroke-width="7" stroke-dasharray="none" stroke-linejoin="miter" stroke-linecap="butt" stroke-dashoffset="" fill-rule="nonzero" opacity="1" marker-start="" marker-mid="" marker-end="" d="M485.78181314468384,310.82907927036285L510.3272668123245,289.01089823246" id="svg_45"/><path fill="none" fill-opacity="1" stroke="#000000" stroke-opacity="1" stroke-width="7" stroke-dasharray="none" stroke-linejoin="miter" stroke-linecap="butt" stroke-dashoffset="" fill-rule="nonzero" opacity="1" marker-start="" marker-mid="" marker-end="" d="M513.0545394420624,291.7381708621979L324.87272799015045,108.10181379318237" id="svg_47"/><path fill="none" fill-opacity="1" stroke="#000000" stroke-opacity="1" stroke-width="7" stroke-dasharray="none" stroke-linejoin="miter" stroke-linecap="butt" stroke-dashoffset="" fill-rule="nonzero" opacity="1" marker-start="" marker-mid="" marker-end="" d="M396.69090723991394,144.46544885635376L396.69090723991394,179.01090216636658" id="svg_48"/><path fill="none" fill-opacity="1" stroke="#000000" stroke-opacity="1" stroke-width="7" stroke-dasharray="none" stroke-linejoin="miter" stroke-linecap="butt" stroke-dashoffset="" fill-rule="nonzero" opacity="1" marker-start="" marker-mid="" marker-end="" d="M471.23635911941534,146.28363060951233L471.23635911941534,249.91999053955078" id="svg_50"/><path fill="none" fill-opacity="1" stroke="#000000" stroke-opacity="1" stroke-width="7" stroke-dasharray="none" stroke-linejoin="miter" stroke-linecap="butt" stroke-dashoffset="" fill-rule="nonzero" opacity="1" marker-start="" marker-mid="" marker-end="" d="M393.0545320510864,143.55635619163513 L475.7818269729614,144.46544432640076 " id="svg_49" class=""/><path fill="none" fill-opacity="1" stroke="#000000" stroke-opacity="1" stroke-width="7" stroke-dasharray="none" stroke-linejoin="miter" stroke-linecap="butt" stroke-dashoffset="" fill-rule="nonzero" opacity="1" marker-start="" marker-mid="" marker-end="" d="M182.14546036720276,292.64726173877716L182.14546036720276,436.28362023830414" id="svg_52"/><path fill="none" fill-opacity="1" stroke="#000000" stroke-opacity="1" stroke-width="7" stroke-dasharray="none" stroke-linejoin="miter" stroke-linecap="butt" stroke-dashoffset="" fill-rule="nonzero" opacity="1" marker-start="" marker-mid="" marker-end="" d="M469.4181773662567,291.7381708621979L473.05454087257385,437.1927111148834" id="svg_51"/><path fill="none" fill-opacity="1" stroke="#000000" stroke-opacity="1" stroke-width="7" stroke-dasharray="none" stroke-linejoin="miter" stroke-linecap="butt" stroke-dashoffset="" fill-rule="nonzero" opacity="1" marker-start="" marker-mid="" marker-end="" d="M83.05455482006073,368.1018044948578L83.96364569664001,436.28362023830414" id="svg_53"/><path fill="none" fill-opacity="1" stroke="#000000" stroke-opacity="1" stroke-width="7" stroke-dasharray="none" stroke-linejoin="miter" stroke-linecap="butt" stroke-dashoffset="" fill-rule="nonzero" opacity="1" marker-start="" marker-mid="" marker-end="" d="M130.32728040218353,368.1018044948578L131.23637127876282,436.28362023830414" id="svg_55"/><path fill="none" fill-opacity="1" stroke="#000000" stroke-opacity="1" stroke-width="7" stroke-dasharray="none" stroke-linejoin="miter" stroke-linecap="butt" stroke-dashoffset="" fill-rule="nonzero" opacity="1" marker-start="" marker-mid="" marker-end="" d="M0.3272850513458252,480.82907319068903L512.1454485654831,479.9199823141098" id="svg_58"/></g></svg>