<svg width="512" height="512" xmlns="http://www.w3.org/2000/svg">

 <g>
  <title>background</title>
  <rect fill="none" id="canvas_background" height="402" width="582" y="-1" x="-1"/>
 </g>
 <g>
  <title>Layer 1</title>
  <g id="svg_1">
   <polygon id="svg_2" fill="#E8EAE9" points="48,167.467 60.8,167.467 48,180.267  "/>
   <polygon id="svg_3" fill="#E8EAE9" points="230.4,188.8 230.4,460.8 464,460.8 464,167.467 230.4,167.467  "/>
  </g>
  <polygon id="svg_4" fill="#FFD15C" points="512,167.467 0,167.467 60.8,0 451.2,0 "/>
  <path id="svg_5" fill="#F7B64C" d="m262.399994,156.800003l-112,-112.000004c-8.533005,-8.533001 -23.467003,-8.533001 -32.000008,0l-111.999996,112.000004c-8.533,8.53299 -8.533,23.466995 0,32c8.533,8.53299 23.466999,8.53299 32,0l96.000004,-96l96,96c8.53299,8.53299 23.466995,8.53299 32,0c8.53302,-8.533005 8.53302,-23.46701 0,-32z"/>
  <polygon id="svg_6" fill="#F3F3F3" points="230.4,512 230.4,188.8 134.4,93.867 38.4,188.8 38.4,512 "/>
  <path id="svg_7" fill="#415A6B" d="m188.800003,460.799988l-108.800003,0l0,-152.53299l107.733002,0l0,152.53299l1.067001,0z"/>
  <rect id="svg_8" fill="#344A5E" height="123.733" width="78.933" y="322.133" x="94.933"/>
  <rect id="svg_9" fill="#415A6B" height="98.133" width="98.133" y="329.6" x="298.667"/>
  <rect id="svg_10" fill="#55C0EB" height="71.467" width="71.467" y="343.467" x="311.467"/>
  <rect id="svg_11" fill="#415A6B" height="98.133" width="98.133" y="200.533" x="298.667"/>
  <rect id="svg_12" fill="#55C0EB" height="71.467" width="71.467" y="213.333" x="311.467"/>
  <rect id="svg_13" fill="#CED6E0" height="51.2" width="512" y="460.8"/>
  <circle id="svg_14" fill="#415A6B" r="43.733" cy="205.867" cx="134.4"/>
  <path id="svg_15" fill="#55C0EB" d="m134.399994,235.733002c-17.067001,0 -29.867004,-13.867004 -29.867004,-29.867004c0.000008,-17.065994 13.867012,-29.865997 29.867004,-29.865997c17.067001,0 29.866989,13.867004 29.866989,29.867004c0.000015,17.065994 -12.799988,29.865997 -29.866989,29.865997z"/>
  <g id="svg_16"/>
  <g id="svg_17"/>
  <g id="svg_18"/>
  <g id="svg_19"/>
  <g id="svg_20"/>
  <g id="svg_21"/>
  <g id="svg_22"/>
  <g id="svg_23"/>
  <g id="svg_24"/>
  <g id="svg_25"/>
  <g id="svg_26"/>
  <g id="svg_27"/>
  <g id="svg_28"/>
  <g id="svg_29"/>
  <g id="svg_30"/>
  <line stroke-linecap="undefined" stroke-linejoin="undefined" id="svg_31" y2="-1.349998" x2="63.5" y1="164.650002" x1="1.5" stroke-width="10" stroke="#000" fill="none"/>
  <line stroke-linecap="undefined" stroke-linejoin="undefined" id="svg_32" y2="2.650002" x2="449.5" y1="-0.349998" x1="64.5" stroke-width="10" stroke="#000" fill="none"/>
  <line stroke-linecap="undefined" stroke-linejoin="undefined" id="svg_33" y2="0.650002" x2="452.5" y1="166.650002" x1="511.5" stroke-width="10" stroke="#000" fill="none"/>
  <line stroke-linecap="undefined" stroke-linejoin="undefined" id="svg_34" y2="167.650002" x2="512.5" y1="168.650002" x1="272.5" stroke-width="10" stroke="#000" fill="none"/>
  <line stroke-linecap="undefined" stroke-linejoin="undefined" id="svg_35" y2="171.650002" x2="276.5" y1="40.650002" x1="147.5" stroke-width="10" stroke="#000" fill="none"/>
  <line stroke-linecap="undefined" stroke-linejoin="undefined" id="svg_36" y2="38.650002" x2="125.5" y1="154.650002" x1="4.5" stroke-width="10" stroke="#000" fill="none"/>
  <line stroke-linecap="undefined" stroke-linejoin="undefined" id="svg_37" y2="95.650002" x2="135.5" y1="195.650002" x1="33.5" stroke-width="10" stroke="#000" fill="none"/>
  <line stroke-linecap="undefined" stroke-linejoin="undefined" id="svg_38" y2="96.650002" x2="133.5" y1="196.650002" x1="236.5" stroke-width="10" stroke="#000" fill="none"/>
  <line stroke-linecap="undefined" stroke-linejoin="undefined" id="svg_39" y2="459.650002" x2="513.5" y1="458.650002" x1="2.5" stroke-width="10" stroke="#000" fill="none"/>
  <line stroke-linecap="undefined" stroke-linejoin="undefined" id="svg_41" y2="459.650002" x2="39.5" y1="191.650002" x1="40.5" stroke-width="10" stroke="#000" fill="none"/>
  <line stroke-linecap="undefined" stroke-linejoin="undefined" id="svg_42" y2="466.650002" x2="235.5" y1="198.650002" x1="233.5" stroke-width="10" stroke="#000" fill="none"/>
  <line stroke-linecap="undefined" stroke-linejoin="undefined" id="svg_44" y2="461.650002" x2="468.5" y1="173.650002" x1="463.5" stroke-width="10" stroke="#000" fill="none"/>
  <line stroke-linecap="undefined" stroke-linejoin="undefined" id="svg_47" y2="515.650002" x2="2.5" y1="453.650002" x1="2.5" stroke-width="10" stroke="#000" fill="none"/>
  <line stroke-linecap="undefined" stroke-linejoin="undefined" id="svg_48" y2="510.650002" x2="508.5" y1="458.650002" x1="508.5" stroke-width="10" stroke="#000" fill="none"/>
  <line stroke-linecap="undefined" stroke-linejoin="undefined" id="svg_49" y2="509.650002" x2="5.5" y1="510.650002" x1="508.5" stroke-width="10" stroke="#000" fill="none"/>
  <path d="m124.5,40.650002c1,0 2,0 3,0c1,0 1,0 2,0c1,0 3,0 3,0c1,0 2,0 3,0c1,0 1,0 2,0c1,0 2,0 3,0l0,0l1,0" id="svg_57" stroke-width="10" stroke="#000" fill="none"/>
  <path d="m4.5,159.649994c0,0 -1.458804,0.693436 -2,2c-0.382684,0.923874 -0.617317,1.076126 -1,2c-0.541196,1.306564 -1,2 -1,3c0,0 0,1 0,1c0,1 0,2 0,3c0,0 0,1 0,2c0,1 0,2 0,2c0,1 0,2 0,3c0,1 0,1 0,2c0,1 0.07612,1.61731 1,2c1.306563,0.541199 2,1 3,2c0,0 0.292893,1.292892 1,2c0.707107,0.707108 1.292893,0.292892 2,1c0.707107,0.707108 1,0 1,0c1,0 2.458804,-0.306564 3,1c0.382684,0.923874 0.292893,1.292892 1,2c0.707107,0.707108 2.292893,-0.707108 3,0c0.707108,0.707108 1,1 1,1c1,0 1,0 2,0c1,0 2,1 2,1c1,0 1,1 2,1c1,0 1,1 2,1c0,0 1,0 2,0c1,0 2,0 2,0c1,0 2,0 3,0c1,0 1,0 2,0c1,0 2,0 3,0l0,0" id="svg_58" stroke-width="10" stroke="#000" fill="none"/>
  <path d="m148.5,40.650002c-1,0 -2,0 -3,0c-1,0 -1,0 -2,0c-1,0 -2,0 -3,0c0,0 -1,0 -2,0l-1,0" id="svg_62" stroke-width="10" stroke="#000" fill="none"/>
  <path d="m231.5,190.649994c0,0 0,1 0,2c0,1 0,2 1,2c0,0 1,0 2,0c1,0 1.292892,0.292892 2,1c0.707108,0.707108 2.076126,-0.38269 3,0c1.306564,0.541199 1,1 2,1c1,0 2,0 3,0c0,0 1,0 2,0c1,0 2,0 2,0c1,0 2,0 3,0c1,0 1,0 2,0c1,0 1.292892,-0.292892 2,-1c0.707092,-0.707108 1,-1 1,-1c0,0 1.292908,-0.292892 2,-1c0.707092,-0.707108 0.292908,-1.292892 1,-2c0.707092,-0.707108 1,-1 1,-1c1,0 1,0 1,-1c0,-1 1.292908,-0.292892 2,-1c0.707092,-0.707108 0,-2 1,-2c0,0 -0.707092,-0.292892 0,-1c0.707092,-0.707108 1.292908,-0.292892 2,-1c0.707092,-0.707108 0.292908,-1.292892 1,-2c0.707092,-0.707108 1,-1 1,-2c0,-1 0,-2 0,-2c0,-1 0,-1 0,-2l0,-1l0,-1" id="svg_64" stroke-width="10" stroke="#000" fill="none"/>
  <polyline stroke-linecap="round" id="svg_65" points="272.5,172.6500015258789 272.5,173.6500015258789 " stroke-width="10" stroke="#000" fill="none"/>
 </g>
</svg>